<?xml version="1.0" standalone="no"?><!DOCTYPE svg PUBLIC "-//W3C//DTD SVG 1.1//EN" "http://www.w3.org/Graphics/SVG/1.1/DTD/svg11.dtd"><svg class="icon" width="200px" height="200.00px" viewBox="0 0 1024 1024" version="1.1" xmlns="http://www.w3.org/2000/svg"><path fill="#ffffff" d="M869.382015 395.138432c-16.559141-136.405693-84.198657-235.852636-167.244049-235.665371l-384.149147 0.936325c-83.060741 0.187265-150.201907 99.885941-166.16753 236.382709-58.355059 33.930787-88.445378 103.132892-88.24174 183.163623 0.124843 59.400878 17.026792 112.683409 49.566906 150.046365l0.343831 132.659369 150.935618-0.313132-0.187265-77.721129 494.616074-1.187035 0.201591 77.722152 150.935618-0.372483-0.327458-132.661416c32.368198-37.456077 49.036833-90.831728 48.880267-150.263305C958.373839 497.987868 927.924339 428.849208 869.382015 395.138432L869.382015 395.138432zM318.160735 211.037461l384.15017-0.904603c53.486168-0.155543 100.368942 70.700225 118.097722 166.776398-8.194636-1.560542-16.777105-2.559289-25.673729-3.059686 0-0.218988 0.233314-0.623193 0.030699-0.623193-72.258721 0.186242-49.676399 0.12382-100.570533 0.248663-50.89311 0.124843-33.023114 0.063445-83.777055 0.188288l-371.446847 0.874927c-13.484106 0-26.235524 1.435699-38.282908 3.839445C218.057853 282.143938 264.69094 211.131605 318.160735 211.037461L318.160735 211.037461zM218.41601 646.252657c-33.05586 0.094144-59.806107-29.684066-59.900252-66.545602-0.077771-36.803207 26.548656-66.737984 59.572794-66.831105 32.883945-0.062422 59.650565 29.747511 59.758012 66.548672C277.941732 616.381325 251.330654 646.160559 218.41601 646.252657L218.41601 646.252657zM684.41021 633.674177l-346.397335 0.436952c-54.000891 0.125867-55.186903-90.925872-0.218988-91.082438l346.396311-0.810459C734.711849 542.092365 734.913441 633.550357 684.41021 633.674177L684.41021 633.674177zM804.036751 644.880403c-32.961716 0.093121-59.711963-29.653367-59.805084-66.514903-0.078795-36.83493 26.547633-66.768683 59.478649-66.831105 32.992415-0.094144 59.774385 29.716812 59.851133 66.548672C863.592149 615.008049 836.998467 644.848681 804.036751 644.880403L804.036751 644.880403zM804.036751 644.880403" /></svg>